<svg width="174" height="103" viewBox="0 0 174 103" fill="none" xmlns="http://www.w3.org/2000/svg">
<path d="M43.4857 103C35.6529 103 28.5474 98.6114 25.4422 91.7906L0.82469 38.0698C-2.00073 31.9099 2.7829 25.0626 9.86043 25.0626C13.665 25.0626 17.1338 27.1247 18.7563 30.3765L45.1082 82.7225L71.1524 9.4117C73.1946 3.78054 78.7894 0 85.0557 0C91.35 0 96.9169 3.78054 98.9031 9.4117L124.947 82.7225L157.23 28.4995C158.824 25.8293 161.79 24.1902 165.035 24.1902C171.693 24.1902 176.029 30.826 173.035 36.4571L142.655 93.8791C139.69 99.4574 133.647 103 127.045 103C117.338 103 108.75 97.1309 105.673 88.433L84.3843 27.7857L62.1167 90.3629C59.4032 97.8976 51.906 103 43.4857 103Z" fill="#83C67C" fill-opacity="0.6"/>
</svg>
